HIERARCHY
ROOT Hips
{
  OFFSET 0 89.5177 0.535
  CHANNELS 6 Xposition Yposition Zposition Zrotation Xrotation Yrotation
  JOINT Spine
  {
    OFFSET 12.0259 -0.162855 1.69034e-005
    CHANNELS 3 Zrotation Xrotation Yrotation
    JOINT Spine1
    {
      OFFSET 15.3169 -0.0121922 0
      CHANNELS 3 Zrotation Xrotation Yrotation
      JOINT Spine2
      {
        OFFSET 15.3176 -0.0121908 0
        CHANNELS 3 Zrotation Xrotation Yrotation
        JOINT Neck
        {
          OFFSET 19.9142 1.56338 0
          CHANNELS 3 Zrotation Xrotation Yrotation
          JOINT Head
          {
            OFFSET 6.92651 0 0
            CHANNELS 3 Zrotation Xrotation Yrotation
            End Site
            {
              OFFSET 20.7666 0 0
            }
          }
          JOINT LeftShoulder
          {
            OFFSET -6.20654 0.708824 7.28219
            CHANNELS 3 Zrotation Xrotation Yrotation
            JOINT LeftArm
            {
              OFFSET 14.108 0 -1.52588e-005
              CHANNELS 3 Zrotation Xrotation Yrotation
              JOINT LeftForeArm
              {
                OFFSET 28.5802 0 0
                CHANNELS 3 Zrotation Xrotation Yrotation
                JOINT LeftHand
                {
                  OFFSET 27.092 0 0
                  CHANNELS 3 Zrotation Xrotation Yrotation
                  End Site
                  {
                    OFFSET 9.55928 -0.186424 0.145352
                  }
                }
              }
            }
          }
          JOINT RightShoulder
          {
            OFFSET -6.20654 0.708866 -7.28218
            CHANNELS 3 Zrotation Xrotation Yrotation
            JOINT RightArm
            {
              OFFSET 14.108 0 1.52588e-005
              CHANNELS 3 Zrotation Xrotation Yrotation
              JOINT RightForeArm
              {
                OFFSET 28.5802 0 0
                CHANNELS 3 Zrotation Xrotation Yrotation
                JOINT RightHand
                {
                  OFFSET 27.092 0 0
                  CHANNELS 3 Zrotation Xrotation Yrotation
                  End Site
                  {
                    OFFSET 9.55929 -0.186417 -0.145354
                  }
                }
              }
            }
          }
        }
      }
    }
  }
  JOINT LeftUpLeg
  {
    OFFSET 0.005 -0.535 8.837
    CHANNELS 3 Zrotation Xrotation Yrotation
    JOINT LeftLeg
    {
      OFFSET 39.9035 0 0
      CHANNELS 3 Zrotation Xrotation Yrotation
      JOINT LeftFoot
      {
        OFFSET 39.6689 0 0
        CHANNELS 3 Zrotation Xrotation Yrotation
        JOINT LeftToe
        {
          OFFSET 10.1624 13.6296 0
          CHANNELS 3 Zrotation Xrotation Yrotation
          End Site
          {
            OFFSET 8.38147 0 0
          }
        }
      }
    }
  }
  JOINT RightUpLeg
  {
    OFFSET 0.005 -0.535 -8.837
    CHANNELS 3 Zrotation Xrotation Yrotation
    JOINT RightLeg
    {
      OFFSET 39.9035 0 0
      CHANNELS 3 Zrotation Xrotation Yrotation
      JOINT RightFoot
      {
        OFFSET 39.6689 0 0
        CHANNELS 3 Zrotation Xrotation Yrotation
        JOINT RightToe
        {
          OFFSET 10.1624 13.6296 0
          CHANNELS 3 Zrotation Xrotation Yrotation
          End Site
          {
            OFFSET 8.38147 0 0
          }
        }
      }
    }
  }
}
MOTION
Frames:	7
Frame Time:	0.0333333
409.043 88.8903 -7.18757 108.698 -79.6906 18.6851 -0.168169 -0.257791 0.547115 -0.333875 -0.516706 1.09366 -0.333875 -0.516706 1.09365 -8.30748e-012 -9.0191e-006 -5.27751e-005 -22.3203 43.2186 12.2254 -179.133 -9.56183 -84.7945 68.796 -69.3144 63.5952 -3.35992 -2.38542e-015 -6.36111e-015 -47.7114 -16.2568 -37.6458 -179.992 1.69672 89.7209 54.0089 54.4969 -49.898 -18.1463 6.36111e-015 -2.38542e-015 -32.8909 31.2406 36.0688 -3.34577 2.43871 -178.133 -14.5707 4.77083e-015 -0 16.5285 11.4199 -7.94673 90 5.49764e-016 -0 5.90724 -10.8117 -177.952 1.72279e-006 0 9.93923e-017 8.55402 -3.74466 -0.60025 90 9.31803e-018 -3.97569e-016 
409.031 88.8896 -7.20455 108.567 -79.581 18.5669 -0.175777 -0.259261 0.544107 -0.349091 -0.519709 1.08761 -0.349091 -0.519709 1.0876 -8.30788e-012 -9.0191e-006 -5.27751e-005 -22.2199 43.2763 12.1637 -179.125 -9.6166 -84.7756 68.5308 -69.2786 63.3404 -3.36823 7.95139e-016 6.36111e-015 -47.6584 -16.2649 -37.6611 -179.992 1.65746 89.706 53.9968 54.4237 -49.9293 -18.1526 -3.18055e-015 -2.38542e-015 -32.8618 31.2559 36.0566 -3.32844 2.29358 -178.163 -14.5196 1.59028e-015 -0 16.482 11.3767 -7.92953 90 -3.10601e-018 9.93923e-017 5.91923 -10.9124 -177.959 1.73189e-006 0 4.96962e-017 8.56818 -3.7323 -0.590516 90 6.21202e-018 -0 
409.03 88.8862 -7.22475 108.482 -79.4763 18.4808 -0.182862 -0.248811 0.546761 -0.363317 -0.498893 1.09768 -0.363318 -0.498893 1.09767 -8.30748e-012 -9.0191e-006 -5.27751e-005 -22.1444 43.2813 12.1511 -179.126 -9.5692 -84.7534 68.4157 -69.2572 63.1851 -3.34129 1.59028e-015 3.18055e-015 -47.5181 -16.3203 -37.5607 -179.991 1.65748 89.6982 54.0203 54.4158 -49.9452 -18.1226 0 -7.95139e-016 -33.0029 31.2288 36.1682 -3.38416 2.25098 -178.148 -14.5973 -3.18055e-015 3.97569e-016 16.5648 11.454 -7.96663 90 -7.48549e-016 -9.93923e-017 5.92877 -10.9651 -177.944 1.74068e-006 1.98785e-016 2.48481e-017 8.57409 -3.68614 -0.591586 90 -6.21202e-018 7.95139e-016 
409.03 88.8859 -7.24725 108.291 -79.3824 18.2973 -0.184045 -0.246803 0.551689 -0.366175 -0.49489 1.09699 -0.366175 -0.49489 1.09698 -8.30748e-012 -9.0191e-006 -5.27751e-005 -22.0048 43.2669 12.0149 -179.124 -9.61337 -84.7681 68.4956 -69.2534 63.3095 -3.30801 -1.59028e-015 -3.18055e-015 -47.5597 -16.3094 -37.6622 -179.991 1.64446 89.6765 53.9921 54.3823 -49.9337 -18.1043 -3.18055e-015 -1.59028e-015 -33.0338 31.1891 36.2122 -3.35168 2.11125 -178.163 -14.548 -3.18055e-015 -1.19271e-015 16.5262 11.417 -7.95286 90 -7.11276e-016 9.93923e-017 5.95964 -11.0747 -177.936 1.74917e-006 0 7.45443e-017 8.59063 -3.70049 -0.594257 90 0 -7.95139e-016 
409.031 88.8847 -7.26458 108.114 -79.2937 18.1234 -0.184225 -0.244535 0.554343 -0.366081 -0.490371 1.10809 -0.366081 -0.490371 1.10808 -8.30669e-012 -9.0191e-006 -5.27751e-005 -21.9733 43.2886 11.9762 -179.114 -9.65403 -84.7331 68.6003 -69.2865 63.464 -3.27525 -7.95139e-016 9.54166e-015 -47.5174 -16.3224 -37.6241 -179.991 1.67104 89.6899 53.99 54.388 -49.9723 -18.076 -3.18055e-015 7.95139e-016 -32.9902 31.1845 36.1525 -3.3593 2.02039 -178.166 -14.5541 0 -3.97569e-016 16.5219 11.4171 -7.9478 90 1.6555e-015 -1.98785e-016 5.97672 -11.132 -177.928 1.75736e-006 -1.98785e-016 -1.49089e-016 8.58467 -3.67414 -0.597481 90 3.10601e-018 -1.19271e-015 
409.032 88.883 -7.28148 107.979 -79.2265 17.986 -0.184054 -0.239538 0.550346 -0.365805 -0.480362 1.10011 -0.365805 -0.480362 1.1001 -8.30788e-012 -9.0191e-006 -5.27751e-005 -21.9976 43.2168 12.1099 -179.124 -9.62129 -84.7712 68.86 -69.3177 63.68 -3.24747 0 3.18055e-015 -47.539 -16.2952 -37.5457 -179.99 1.67188 89.6532 53.8364 54.3224 -49.8367 -18.0566 -6.36111e-015 -7.95139e-016 -33.0997 31.2363 36.2821 -3.36436 1.99196 -178.152 -14.5772 3.18055e-015 3.97569e-016 16.5524 11.4522 -7.97653 90 -5.96354e-016 -1.98785e-016 6.00156 -11.1938 -177.907 1.76525e-006 1.98785e-016 -1.49089e-016 8.58475 -3.65436 -0.60025 90 -3.10601e-018 3.97569e-016 
409.033 88.8818 -7.29795 107.867 -79.1723 17.8812 -0.168668 -0.209575 0.569941 -0.335248 -0.420347 1.13945 -0.335248 -0.420347 1.13944 -8.30748e-012 -9.0191e-006 -5.27751e-005 -21.8422 43.0231 11.7922 -179.135 -9.4656 -84.7544 69.2611 -69.2105 64.0912 -3.31859 3.18055e-015 3.18055e-015 -47.4511 -16.3289 -37.518 -179.993 1.76931 89.7834 53.9882 54.3702 -49.9812 -18.0533 0 -0 -33.0245 31.2619 36.2325 -3.33786 1.96648 -178.157 -14.5431 1.59028e-015 -7.95139e-016 16.5147 11.4417 -7.99211 90 1.09021e-015 -1.98785e-016 6.02125 -11.2218 -177.908 1.77286e-006 -1.98785e-016 -2.48481e-017 8.58252 -3.62367 -0.60185 90 0 3.97569e-016 
